<svg xmlns="http://www.w3.org/2000/svg" xmlns:xlink="http://www.w3.org/1999/xlink" width="220.786" height="60" viewBox="0 0 220.786 60">
  <defs>
    <clipPath id="clip-path">
      <path id="Path_2" data-name="Path 2" d="M198.31-97.724,183.668-63.2a12.162,12.162,0,0,1-2.972,4.373h0a16.527,16.527,0,0,1-3.766-4.86h0l-2.918-5.456c-1.729-3.4-3.62-5.458-4.268-5.835h0a1.806,1.806,0,0,0-.567-.262h0a12.235,12.235,0,0,0,4.565-2.6h0a8.991,8.991,0,0,0,2.972-7.024h0a8.892,8.892,0,0,0-2.323-6.754h0c-2.377-2.539-6.321-3.241-13.453-3.4h0q-3-.082-8.753.162h0c-3.664.155-6.182.211-7.673.215h0a7.256,7.256,0,0,1,3.35,1.243h0a5,5,0,0,1,1.945,4.214h0v26.906c0,2.431-1.08,4.161-2.593,4.755h0c-.114.046-.216.085-.322.125h0a11.18,11.18,0,0,1-1.677-.99h0a8.1,8.1,0,0,1-2.431-3.187h0l-15.506-35.66-.163-.486L112.473-63.2c-1.567,3.836-4.538,6.214-7.133,6.376h12.535c-3.944-.27-5.564-3.512-4.106-6.97h0l3.134-7.672h.009l1.016-2.417,2.216-5.417c1.459-3.621,2.485-5.457,3.134-5.457h0c.324.108.919,1.08,1.784,2.971h0l.486,1.243,2.536,6.66.975,2.471h0l.28.712.009.021,3.007,7.641c2.107,5.349-4.052,6.214-4,6.214h33.689a3.783,3.783,0,0,1-2.73-1.027h0a3.132,3.132,0,0,1-.918-2.323h0l.107-14.8h.433c.864,0,3.08.324,5.078,4.268h0l4.16,7.78a63.606,63.606,0,0,0,3.728,6.105h17.167c-3.945-.27-5.565-3.512-4.106-6.97h0l3.134-7.672h.009l1.016-2.417L191.34-79.3c1.459-3.621,2.485-5.457,3.134-5.457h0c.324.108.919,1.08,1.782,2.971h0l.487,1.243,2.536,6.66.975,2.471h0l.28.712.009.021,3.007,7.641c2.108,5.349-4.051,6.214-4,6.214h21.233a6.6,6.6,0,0,1-4.376-1.567h0a8.1,8.1,0,0,1-2.431-3.187h0l-15.507-35.66ZM158.4-94.482c6.861-.432,10.266,2.323,10.266,9.239h0c0,4.646-1.892,7.618-5.619,8.914h0a13.361,13.361,0,0,1-4.539.7h0ZM49.555-91.84a18.35,18.35,0,0,0-7.861,12.68h0a21,21,0,0,0,2.064,13.581h0c2.2,4.3,6.829,7.842,12.952,8.891h0c12.879,2.256,20.776-6.259,22.513-15.939h0A21.372,21.372,0,0,0,77.3-86.4h0c-2.123-4.122-6.586-7.309-12.719-8.305h0a24.481,24.481,0,0,0-4.155-.368h0A19.211,19.211,0,0,0,49.555-91.84M60.128-57.172c-2.792-.673-4.934-2.991-6.487-6.91h0a35.268,35.268,0,0,1-2.134-13.484h0c.12-5.125,1-9.2,2.595-12.276h0c1.649-3.072,3.659-4.661,6.119-4.645h0c3.012,0,5.391,1.861,7.015,5.682h0a30.969,30.969,0,0,1,2.222,13.279h0c-.2,6.263-1.09,11.1-2.729,14.445h0c-1.3,2.718-3.046,4.1-5.175,4.1h0a5.646,5.646,0,0,1-1.426-.192M144.3-94.644h.215c-.056,0-.1-.006-.142-.006h0a.217.217,0,0,0-.072.007m-38.933,0c2.647.053,4.539.81,5.673,2.323h0c1.134,1.458,1.3,3.3.378,5.51h0L105.8-73.249c-1.135,2.809-1.621,3.187-2.864,3.187h0c-.864,0-1.945-1.351-3.3-4h0c-3.4-6.753-5.781-11.508-7.023-14.372h0c-1.729-4.376,2.485-5.835,4.538-6.1h0l.81-.108H73.324c4.037.341,6.7,1.621,8.266,4.863h0L99.15-55.473l13.4-32.2a12.94,12.94,0,0,1,3.512-5.187h0a8.882,8.882,0,0,1,3.567-1.783H105.363Zm-78.241,0a7.016,7.016,0,0,1,3.026.756h0a7.18,7.18,0,0,1,2.161,1.3h0c1.243,1.027,2.323,3.35,2.323,6.213h0V-73.2c0,1.243-.162,1.944-.541,2h0c-.27.054-.756-.27-1.35-.973h0l-18.8-22.475H1.242l.216.053c1.135.27,6.267,2.054,6.267,10.914h0V-65.74c-.162,4.917-2.593,7.294-5.079,8.158h0A6.773,6.773,0,0,1,0-56.824H16.1l-.81-.109A8.357,8.357,0,0,1,8.428-65.74h0V-83.191c0-2.215.756-2.918,2.216-1.351h0l24.69,29.23-.054.053h.054v-31.12c0-4.646,2.377-6.7,4.538-7.564h0a8.391,8.391,0,0,1,3.08-.7H27.122ZM80.049-47.053A4.918,4.918,0,0,0,78.492-46h0a4.722,4.722,0,0,0-1.02,1.55h0a4.91,4.91,0,0,0-.363,1.879h0a4.907,4.907,0,0,0,.363,1.879h0a4.725,4.725,0,0,0,1.007,1.544h0a4.714,4.714,0,0,0,1.543,1.041h0a5.022,5.022,0,0,0,1.987.382h0A4.952,4.952,0,0,0,84-38.113h0a4.9,4.9,0,0,0,1.557-1.054h0a4.718,4.718,0,0,0,1.02-1.549h0a4.926,4.926,0,0,0,.362-1.88h0a4.923,4.923,0,0,0-.362-1.879h0a4.76,4.76,0,0,0-1.007-1.544h0a4.734,4.734,0,0,0-1.544-1.04h0a5.041,5.041,0,0,0-1.987-.382h0a4.947,4.947,0,0,0-1.987.389m.7,7.545a3.143,3.143,0,0,1-1.014-.725h0a3.277,3.277,0,0,1-.658-1.068h0a3.573,3.573,0,0,1-.235-1.295h0a3.582,3.582,0,0,1,.235-1.3h0a3.286,3.286,0,0,1,.651-1.06h0a3.009,3.009,0,0,1,1-.711h0a3.079,3.079,0,0,1,1.282-.263h0a3.077,3.077,0,0,1,1.289.27h0a3.127,3.127,0,0,1,1.013.724h0a3.3,3.3,0,0,1,.658,1.066h0a3.585,3.585,0,0,1,.235,1.3h0a3.576,3.576,0,0,1-.235,1.295h0a3.264,3.264,0,0,1-.651,1.061h0a3.065,3.065,0,0,1-1,.712h0a3.11,3.11,0,0,1-1.282.261h0a3.072,3.072,0,0,1-1.289-.268m82.9-7.712a2.933,2.933,0,0,0-1.009.557h0a2.635,2.635,0,0,0-.659.866h0a2.588,2.588,0,0,0-.239,1.121h0a2.676,2.676,0,0,0,.208,1.114h0a2.127,2.127,0,0,0,.607.779h0a3.389,3.389,0,0,0,.982.537h0a11.07,11.07,0,0,0,1.34.39h0a10.873,10.873,0,0,1,1.07.309h0a2.691,2.691,0,0,1,.646.316h0a.908.908,0,0,1,.323.368h0a1.148,1.148,0,0,1,.088.457h0a1.018,1.018,0,0,1-.45.872h0a2.045,2.045,0,0,1-1.214.322h0a3.808,3.808,0,0,1-1.584-.316h0a5.753,5.753,0,0,1-1.383-.906h0l-.993,1.181a5.677,5.677,0,0,0,1.839,1.134h0a5.934,5.934,0,0,0,2.08.37h0a4.676,4.676,0,0,0,1.355-.187h0a3.021,3.021,0,0,0,1.056-.551h0a2.537,2.537,0,0,0,.686-.885h0a2.781,2.781,0,0,0,.246-1.2h0a2.516,2.516,0,0,0-.195-1.027h0a2.2,2.2,0,0,0-.573-.765h0a3.264,3.264,0,0,0-.949-.557h0a10.851,10.851,0,0,0-1.313-.416h0q-.672-.16-1.11-.309h0a2.743,2.743,0,0,1-.686-.322h0a.98.98,0,0,1-.343-.376h0a1.127,1.127,0,0,1-.094-.483h0a1,1,0,0,1,.4-.8h0a1.734,1.734,0,0,1,1.127-.328h0a3.445,3.445,0,0,1,1.275.248h0a5.766,5.766,0,0,1,1.276.718h0l.885-1.248a5.542,5.542,0,0,0-1.55-.879h0a5.4,5.4,0,0,0-1.859-.3h0a4.091,4.091,0,0,0-1.288.194m-14-.06v9.4h7.02v-1.489h-5.383v-2.511H156v-1.49h-4.712v-2.417H156.6v-1.49Zm-7.518,9.4h1.638v-9.4h-1.638Zm0-9.4-12.819,0v1.531h2.98v7.866h1.664V-45.75h2.98v-1.531Zm-12.349,0v9.4H118.6V-41.16h2.073l2.317,3.276h1.946L122.4-41.442a3.513,3.513,0,0,0,.906-.383h0a2.805,2.805,0,0,0,.705-.6h0a2.734,2.734,0,0,0,.463-.818h0a3.09,3.09,0,0,0,.167-1.055h0a3.087,3.087,0,0,0-.241-1.24h0a2.55,2.55,0,0,0-.691-.94h0a3.17,3.17,0,0,0-1.1-.591h0a4.772,4.772,0,0,0-1.457-.208h-4.188Zm1.637,1.49h2.41a2.293,2.293,0,0,1,1.44.4h0a1.4,1.4,0,0,1,.512,1.179h0a1.421,1.421,0,0,1-.526,1.159h0a2.16,2.16,0,0,1-1.413.432H118.6Zm-13.987-1.49v9.4h7.02v-1.489h-5.383v-2.511h4.712v-1.49h-4.712v-2.417h5.316v-1.49Zm-12.323,0v9.4h1.638v-3.021H95.8a5.009,5.009,0,0,0,1.467-.208h0a3.6,3.6,0,0,0,1.2-.61h0a2.872,2.872,0,0,0,.807-1.007h0a3.136,3.136,0,0,0,.3-1.4h0a3.276,3.276,0,0,0-.247-1.3h0a2.82,2.82,0,0,0-.712-.993h0a3.161,3.161,0,0,0-1.127-.638h0A4.685,4.685,0,0,0,96-47.281h-3.7Zm1.638,1.49h1.925a2.372,2.372,0,0,1,1.482.425h0a1.508,1.508,0,0,1,.553,1.273h0a1.539,1.539,0,0,1-.546,1.233h0a2.226,2.226,0,0,1-1.489.465H93.929Zm-29.465-1.49v9.4H66.1V-41.16h2.073l2.317,3.276h1.946L69.9-41.442a3.522,3.522,0,0,0,.906-.383h0a2.792,2.792,0,0,0,.7-.6h0a2.722,2.722,0,0,0,.464-.818h0a3.089,3.089,0,0,0,.167-1.055h0a3.086,3.086,0,0,0-.241-1.24h0a2.55,2.55,0,0,0-.691-.94h0a3.168,3.168,0,0,0-1.1-.591h0a4.765,4.765,0,0,0-1.456-.208H64.465Zm1.637,1.49h2.41a2.293,2.293,0,0,1,1.44.4h0a1.4,1.4,0,0,1,.512,1.179h0a1.421,1.421,0,0,1-.526,1.159h0a2.159,2.159,0,0,1-1.413.432H66.1Zm-13.961-1.49v9.4h1.637v-3.021H55.65a5.016,5.016,0,0,0,1.467-.208h0a3.6,3.6,0,0,0,1.2-.61h0a2.872,2.872,0,0,0,.807-1.007h0a3.136,3.136,0,0,0,.3-1.4h0a3.265,3.265,0,0,0-.248-1.3h0a2.818,2.818,0,0,0-.711-.993h0a3.163,3.163,0,0,0-1.128-.638h0a4.685,4.685,0,0,0-1.484-.221h-3.7Zm1.637,1.49h1.927a2.37,2.37,0,0,1,1.482.425h0a1.508,1.508,0,0,1,.553,1.273h0a1.539,1.539,0,0,1-.546,1.233h0a2.224,2.224,0,0,1-1.488.465H53.779Z" transform="translate(0 97.724)" fill="none"/>
    </clipPath>
    <linearGradient id="linear-gradient" y1="1" x2="1" y2="1" gradientUnits="objectBoundingBox">
      <stop offset="0" stop-color="#9d5945"/>
      <stop offset="0.1" stop-color="#af7058"/>
      <stop offset="0.2" stop-color="#c1896e"/>
      <stop offset="0.3" stop-color="#d5a487"/>
      <stop offset="0.4" stop-color="#ebc2a3"/>
      <stop offset="0.5" stop-color="#ffe2c2"/>
      <stop offset="0.6" stop-color="#ebc2a4"/>
      <stop offset="0.7" stop-color="#d6a587"/>
      <stop offset="0.8" stop-color="#c2896e"/>
      <stop offset="0.9" stop-color="#af7058"/>
      <stop offset="1" stop-color="#9d5945"/>
    </linearGradient>
  </defs>
  <g id="Group_3" data-name="Group 3" transform="translate(0 97.724)">
    <g id="Group_2" data-name="Group 2" transform="translate(0 -97.724)" clip-path="url(#clip-path)">
      <g id="Group_1" data-name="Group 1">
        <path id="Path_1" data-name="Path 1" d="M0-97.724H220.786v60H0Z" transform="translate(0 97.724)" fill="url(#linear-gradient)"/>
      </g>
    </g>
  </g>
</svg>
