<svg xmlns="http://www.w3.org/2000/svg" xmlns:xlink="http://www.w3.org/1999/xlink" width="1777.794" height="341.945" viewBox="0 0 1777.794 341.945">
  <defs>
    <clipPath id="clip-path">
      <rect id="矩形_2" data-name="矩形 2" width="1777.794" height="341.945" fill="#473525"/>
    </clipPath>
  </defs>
  <g id="组_50" data-name="组 50" transform="translate(-825 -795)" style="mix-blend-mode: multiply;isolation: isolate">
    <g id="组_53" data-name="组 53" transform="translate(825 795)">
      <g id="组_52" data-name="组 52" transform="translate(0 0)" style="isolation: isolate">
        <path id="路径_2" data-name="路径 2" d="M43.178,51.973h.066v-.066Z" transform="translate(0 289.972)" fill="#473525"/>
        <g id="组_51" data-name="组 51" transform="translate(0 0)">
          <g id="组_50-2" data-name="组 50" clip-path="url(#clip-path)">
            <path id="路径_3" data-name="路径 3" d="M218.386,3.769c6.527.434,11.751.434,24.363,6.092a57.813,57.813,0,0,1,17.4,10.441c10.007,8.264,18.711,26.968,18.711,50.029v106.15c0,10.007-1.309,15.659-4.349,16.1-2.178.428-6.092-2.178-10.882-7.836L112.236,3.769H10l1.744.434C20.876,6.374,62.207,20.73,62.207,92.083V236.518c-1.3,39.588-20.883,58.727-40.9,65.694C7.4,307.87,3.474,308.3,0,308.3H129.638l-6.527-.868c-15.659-3.48-55.687-17.4-55.253-70.912V96c0-17.836,6.092-23.495,17.843-10.876L284.514,320.483V70.332c0-37.416,19.139-53.95,36.548-60.911C334.977,4.2,339.333,4.2,345.86,3.769Z" transform="translate(0 21.03)" fill="#473525"/>
            <path id="路径_4" data-name="路径 4" d="M237.81,6.2c-45.877-7.9-86.4.072-120.993,23.106-34.16,23.1-55.542,57.088-63.3,102.11-7.145,35.864-1.118,74.741,16.619,109.354s54.983,63.141,104.295,71.6c103.709,18.159,167.291-50.4,181.272-128.355,6.842-39.436,2.033-77.682-15.481-110.933C323.13,39.89,287.194,14.218,237.81,6.2m39.265,154.468c-1.579,50.424-8.783,89.366-21.975,116.309-12.691,26.593-30.745,37.324-53.154,31.482-22.481-5.415-39.719-24.08-52.226-55.641-12.073-31.5-18.093-67.727-17.185-108.571.967-41.272,8.053-74.063,20.9-98.854C166.7,20.659,182.886,7.856,202.7,7.987c24.238-.026,43.4,14.988,56.477,45.752s19.231,66.148,17.9,106.927" transform="translate(282.204 18.069)" fill="#473525"/>
            <path id="路径_5" data-name="路径 5" d="M433.861,18.125C444.3,9.861,450.822,7.249,462.573,3.769H347.718c21.317.434,36.548,6.52,45.68,18.7,9.139,11.744,10.448,26.541,3.046,44.377l-45.239,109.2c-9.139,22.62-13.053,25.666-23.06,25.666-6.961,0-15.665-10.876-26.541-32.2C274.2,115.137,255.056,76.858,245.048,53.8,231.127,18.559,265.063,6.815,281.59,4.637l6.527-.868H89.738c32.508,2.744,53.943,13.047,66.563,39.153L297.689,319.18l107.894-259.3c8.263-19.573,17.836-33.5,28.278-41.759" transform="translate(500.673 21.03)" fill="#473525"/>
            <path id="路径_6" data-name="路径 6" d="M176.6,3.814c.526,0,1.171-.007,1.737-.007a6.728,6.728,0,0,0-1.737.007" transform="translate(985.29 20.986)" fill="#473525"/>
            <path id="路径_7" data-name="路径 7" d="M201.142,50.055H198.32c.941.007,1.875,0,2.822,0" transform="translate(1106.483 279.273)" fill="#473525"/>
            <path id="路径_8" data-name="路径 8" d="M887.521,329.326H1058.5c-8.7,0-17.836-.428-35.238-12.612a65.269,65.269,0,0,1-19.58-25.666L878.823,3.915,877.513,0,759.619,277.994a98,98,0,0,1-23.935,35.212c-9.783-8.428-20.685-20.922-30.331-39.134l-23.488-43.936c-13.922-27.409-29.146-43.936-34.37-46.983a14.413,14.413,0,0,0-4.566-2.105c2.125-.118,20.185-6.4,36.758-20.955,16.1-14.356,23.929-33.5,23.929-56.556.434-23.054-5.652-41.324-18.711-54.378-19.132-20.448-50.9-26.107-108.321-27.409q-24.139-.651-70.477,1.3c-29.5,1.25-49.772,1.7-61.779,1.737A58.487,58.487,0,0,1,471.3,34.8c8.264,5.224,15.659,17.843,15.659,33.936V285.39c0,19.573-8.7,33.5-20.883,38.285-.914.375-1.737.684-2.586,1.013a91.152,91.152,0,0,1-13.507-7.974,65.256,65.256,0,0,1-19.573-25.666L305.55,3.915,304.248,0l-117.9,277.994c-12.613,30.89-36.541,50.029-57.424,51.332H229.849c-31.758-2.171-44.8-28.271-33.061-56.115l25.238-61.779h.072l8.184-19.462,17.843-43.621c11.744-29.146,20.008-43.936,25.232-43.936,2.612.868,7.4,8.7,14.356,23.922l3.915,10.007,20.416,53.628,7.856,19.9h.007l2.257,5.737.066.164L346.447,279.3c16.968,43.068-32.627,50.029-32.192,50.029H585.505c-6.408-.039-12.862-.678-21.968-8.264-4.79-4.79-7.4-10.876-7.4-18.7l.862-119.2h3.487c6.954,0,24.8,2.612,40.89,34.37l33.5,62.641a509.969,509.969,0,0,0,30.015,49.16H803.122c-31.758-2.171-44.8-28.271-33.061-56.115l25.231-61.779h.079l8.178-19.462,17.843-43.621c11.751-29.146,20.014-43.936,25.232-43.936,2.612.868,7.4,8.7,14.356,23.922l3.921,10.007L885.31,191.97l7.856,19.9h.013l2.257,5.737.066.164L919.713,279.3c16.968,43.068-32.627,50.029-32.192,50.029M593.552,172.279c-10.876,3.915-23.06,5.652-36.548,5.652L556.142,26.1c55.246-3.474,82.656,18.7,82.656,74.392,0,37.416-15.231,61.345-45.246,71.787" transform="translate(719.298 0.002)" fill="#473525"/>
          </g>
        </g>
      </g>
    </g>
  </g>
</svg>
