<svg xmlns="http://www.w3.org/2000/svg" width="270.18" height="73.44" viewBox="0 0 270.18 73.44">
  <g id="Group_8" data-name="Group 8" transform="translate(-37.99 -95.9)">
    <g id="Group_6" data-name="Group 6">
      <g id="Group_5" data-name="Group 5">
        <path id="Path_3" data-name="Path 3" d="M110.34,163.2a3.5,3.5,0,0,1-.99,1.23,4.44,4.44,0,0,1-1.47.75,6.167,6.167,0,0,1-1.8.25h-2.29v3.7h-2v-11.5h4.53a5.8,5.8,0,0,1,1.82.27,3.88,3.88,0,0,1,1.38.78,3.328,3.328,0,0,1,.87,1.22,4.025,4.025,0,0,1,.3,1.59A3.71,3.71,0,0,1,110.34,163.2Zm-2.37-3.22a2.883,2.883,0,0,0-1.81-.52H103.8v4.16h2.36a2.7,2.7,0,0,0,1.82-.57,1.87,1.87,0,0,0,.67-1.51A1.833,1.833,0,0,0,107.97,159.98Z" fill="#fff"/>
        <path id="Path_4" data-name="Path 4" d="M124.25,169.13l-2.84-4.01h-2.54v4.01h-2v-11.5H122a6.122,6.122,0,0,1,1.78.25,3.957,3.957,0,0,1,1.35.72,3.141,3.141,0,0,1,.85,1.15,4.031,4.031,0,0,1,.09,2.81,3.356,3.356,0,0,1-1.43,1.74,4.265,4.265,0,0,1-1.11.47l3.11,4.35h-2.39Zm-.66-9.19a2.834,2.834,0,0,0-1.76-.49h-2.95v3.88h2.97a2.648,2.648,0,0,0,1.73-.53,1.74,1.74,0,0,0,.64-1.42A1.722,1.722,0,0,0,123.59,159.94Z" fill="#fff"/>
        <path id="Path_5" data-name="Path 5" d="M143.93,165.67a5.814,5.814,0,0,1-1.25,1.9,6.072,6.072,0,0,1-1.91,1.29,5.989,5.989,0,0,1-2.43.48,6.157,6.157,0,0,1-2.43-.47,5.93,5.93,0,0,1-1.89-1.27,5.718,5.718,0,0,1-1.23-1.89,5.924,5.924,0,0,1-.44-2.3,6.113,6.113,0,0,1,.44-2.3,5.814,5.814,0,0,1,1.25-1.9,6.072,6.072,0,0,1,1.91-1.29,5.989,5.989,0,0,1,2.43-.48,6.157,6.157,0,0,1,2.43.47,5.93,5.93,0,0,1,1.89,1.27,5.618,5.618,0,0,1,1.23,1.89,6.231,6.231,0,0,1,0,4.6Zm-1.96-3.86a4.007,4.007,0,0,0-.81-1.31,3.854,3.854,0,0,0-1.24-.89,3.757,3.757,0,0,0-1.58-.33,3.865,3.865,0,0,0-1.57.32,3.577,3.577,0,0,0-1.22.87,4,4,0,0,0-.8,1.3,4.5,4.5,0,0,0,0,3.18,4.007,4.007,0,0,0,.81,1.31,3.854,3.854,0,0,0,1.24.89,3.757,3.757,0,0,0,1.58.33,3.865,3.865,0,0,0,1.57-.32,3.577,3.577,0,0,0,1.22-.87,4,4,0,0,0,.8-1.3,4.5,4.5,0,0,0,0-3.18Z" fill="#fff"/>
        <path id="Path_6" data-name="Path 6" d="M159.47,163.2a3.5,3.5,0,0,1-.99,1.23,4.44,4.44,0,0,1-1.47.75,6.167,6.167,0,0,1-1.8.25h-2.29v3.7h-2v-11.5h4.53a5.8,5.8,0,0,1,1.82.27,3.88,3.88,0,0,1,1.38.78,3.327,3.327,0,0,1,.87,1.22,4.025,4.025,0,0,1,.3,1.59A3.473,3.473,0,0,1,159.47,163.2Zm-2.36-3.22a2.883,2.883,0,0,0-1.81-.52h-2.36v4.16h2.36a2.7,2.7,0,0,0,1.82-.57,2.083,2.083,0,0,0-.01-3.07Z" fill="#fff"/>
        <path id="Path_7" data-name="Path 7" d="M174.52,159.46h-6.51v2.96h5.77v1.82h-5.77v3.07h6.59v1.82h-8.59v-11.5h8.51Z" fill="#fff"/>
        <path id="Path_8" data-name="Path 8" d="M188.51,169.13l-2.84-4.01h-2.54v4.01h-2v-11.5h5.13a6.122,6.122,0,0,1,1.78.25,3.957,3.957,0,0,1,1.35.72,3.141,3.141,0,0,1,.85,1.15,4.031,4.031,0,0,1,.09,2.81,3.356,3.356,0,0,1-1.43,1.74,4.265,4.265,0,0,1-1.11.47l3.11,4.35h-2.39Zm-.66-9.19a2.834,2.834,0,0,0-1.76-.49h-2.95v3.88h2.97a2.648,2.648,0,0,0,1.73-.53,1.74,1.74,0,0,0,.64-1.42A1.779,1.779,0,0,0,187.85,159.94Z" fill="#fff"/>
        <path id="Path_9" data-name="Path 9" d="M201.93,169.13h-2.04V159.5h-3.65v-1.87h9.33v1.87h-3.65v9.63Z" fill="#fff"/>
        <path id="Path_10" data-name="Path 10" d="M213.93,157.63v11.5h-2v-11.5Z" fill="#fff"/>
        <path id="Path_11" data-name="Path 11" d="M229.64,159.46h-6.51v2.96h5.77v1.82h-5.77v3.07h6.59v1.82h-8.59v-11.5h8.51Z" fill="#fff"/>
        <path id="Path_12" data-name="Path 12" d="M238.05,161.23a1.278,1.278,0,0,0,.42.46,3.318,3.318,0,0,0,.84.39c.36.12.81.25,1.36.38a12.27,12.27,0,0,1,1.61.51,4.036,4.036,0,0,1,1.16.68,2.663,2.663,0,0,1,.7.94,3.046,3.046,0,0,1,.24,1.26,3.37,3.37,0,0,1-.3,1.46,2.98,2.98,0,0,1-.84,1.08,3.6,3.6,0,0,1-1.29.67,5.792,5.792,0,0,1-1.66.23,7.283,7.283,0,0,1-2.55-.45,6.843,6.843,0,0,1-2.25-1.39l1.22-1.45a7.219,7.219,0,0,0,1.69,1.11,4.636,4.636,0,0,0,1.94.39,2.553,2.553,0,0,0,1.49-.39,1.238,1.238,0,0,0,.55-1.07,1.434,1.434,0,0,0-.11-.56,1,1,0,0,0-.4-.45,3.221,3.221,0,0,0-.79-.39,12.534,12.534,0,0,0-1.31-.38,12.5,12.5,0,0,1-1.64-.48,3.817,3.817,0,0,1-1.2-.66,2.722,2.722,0,0,1-.74-.95,3.272,3.272,0,0,1-.25-1.36,3.105,3.105,0,0,1,1.1-2.43,3.493,3.493,0,0,1,1.23-.68,4.986,4.986,0,0,1,1.58-.24,6.57,6.57,0,0,1,2.28.37,6.94,6.94,0,0,1,1.9,1.08l-1.08,1.53a7.291,7.291,0,0,0-1.56-.88,4.24,4.24,0,0,0-1.56-.3,2.121,2.121,0,0,0-1.38.4,1.4,1.4,0,0,0-.4,1.57Z" fill="#fff"/>
      </g>
    </g>
    <g id="Group_7" data-name="Group 7">
      <path id="Path_13" data-name="Path 13" d="M80.37,109.78c0-3.5-1.32-6.35-2.84-7.6a8.86,8.86,0,0,0-2.65-1.59,8.688,8.688,0,0,0-3.7-.93H90.55a10.493,10.493,0,0,0-3.77.86c-2.65,1.06-5.55,3.57-5.55,9.26V147.8L51.01,112.03c-1.79-1.92-2.71-1.06-2.71,1.65v21.36c-.07,8.13,6.02,10.25,8.4,10.78l.99.13H37.99a8.356,8.356,0,0,0,3.24-.93c3.04-1.06,6.02-3.97,6.22-9.98V113.09c0-10.84-6.28-13.03-7.67-13.36l-.26-.07H55.06l23.01,27.51c.73.86,1.32,1.26,1.65,1.19.46-.07.66-.93.66-2.45V109.78Zm.86,38.09h-.07l.07-.07Z" fill="#fff"/>
      <path id="Path_14" data-name="Path 14" d="M132.59,109.75a26.161,26.161,0,0,1,2.35,16.86c-2.13,11.85-11.79,22.27-27.55,19.51-7.49-1.28-13.16-5.62-15.85-10.88a25.718,25.718,0,0,1-2.53-16.62c1.18-6.84,4.43-12.01,9.62-15.52,5.26-3.5,11.42-4.71,18.39-3.51C124.53,100.81,129.99,104.71,132.59,109.75Zm-12.32-2.94c-1.99-4.68-4.9-6.96-8.58-6.95-3.01-.02-5.47,1.93-7.49,5.68-1.95,3.77-3.03,8.75-3.18,15.03a43.185,43.185,0,0,0,2.61,16.5c1.9,4.8,4.52,7.63,7.94,8.46,3.41.89,6.15-.74,8.08-4.78,2-4.1,3.1-10.01,3.34-17.68A38.085,38.085,0,0,0,120.27,106.81Z" fill="#fff"/>
      <path id="Path_15" data-name="Path 15" d="M137.84,105.62c-1.92-3.97-5.18-5.53-10.12-5.95h30.15l-.99.13c-2.51.33-7.67,2.12-5.55,7.47,1.52,3.51,4.43,9.32,8.6,17.59,1.65,3.24,2.98,4.89,4.03,4.89,1.52,0,2.12-.46,3.51-3.9l6.88-16.6c1.12-2.71.93-4.96-.46-6.74-1.39-1.85-3.7-2.78-6.94-2.84h17.46a10.868,10.868,0,0,0-4.36,2.18,15.846,15.846,0,0,0-4.3,6.35l-16.4,39.41Z" fill="#fff"/>
      <path id="Path_16" data-name="Path 16" d="M254.52,137.56c2.98,5.62,6.74,7.67,8.27,8.2l.53.2H248.38a78.349,78.349,0,0,1-4.56-7.47l-5.09-9.52c-2.45-4.83-5.16-5.22-6.22-5.22h-.53l-.13,18.12a3.84,3.84,0,0,0,1.12,2.84,4.866,4.866,0,0,0,3.77,1.26H214.59a8.766,8.766,0,0,0,3.57-.86c1.85-.73,3.17-2.84,3.17-5.82V106.36a6.123,6.123,0,0,0-2.38-5.16,8.212,8.212,0,0,0-4.36-1.52c1.79,0,4.96-.07,9.65-.26s8.27-.26,10.71-.2c8.73.2,13.56,1.06,16.46,4.17,1.98,1.98,2.91,4.76,2.84,8.27a11.021,11.021,0,0,1-3.64,8.6,13.933,13.933,0,0,1-5.62,3.17,2.032,2.032,0,0,1,.73.33c.79.46,3.11,2.98,5.22,7.14ZM244.4,111.17c0-8.46-4.17-11.84-12.56-11.31l.13,23.08a16.169,16.169,0,0,0,5.55-.86C242.09,120.5,244.4,116.86,244.4,111.17Z" fill="#fff"/>
      <path id="Path_17" data-name="Path 17" d="M212.73,140.13,193.75,96.49l-.2-.59-17.92,42.25c-1.92,4.69-5.55,7.6-8.73,7.8h15.34c-4.83-.33-6.81-4.3-5.03-8.53l3.84-9.39h.01l1.24-2.96,2.71-6.63c1.79-4.43,3.04-6.68,3.83-6.68.4.13,1.12,1.32,2.18,3.64l.6,1.52,3.1,8.15,1.19,3.02h0l.34.87.01.03h0l3.68,9.35c2.58,6.55-4.96,7.6-4.89,7.6h25.99c-1.32,0-2.71-.07-5.36-1.92A9.863,9.863,0,0,1,212.73,140.13Z" fill="#fff"/>
      <path id="Path_18" data-name="Path 18" d="M299.86,140.13,280.88,96.49l-.2-.59-17.92,42.25c-1.92,4.69-5.55,7.6-8.73,7.8h15.34c-4.83-.33-6.81-4.3-5.03-8.53l3.84-9.39h.01l1.24-2.96,2.71-6.63c1.79-4.43,3.04-6.68,3.83-6.68.4.13,1.12,1.32,2.18,3.64l.6,1.52,3.1,8.15,1.19,3.02h0l.34.87.01.03h0l3.68,9.35c2.58,6.55-4.96,7.6-4.89,7.6h25.99c-1.32,0-2.71-.07-5.36-1.92A9.957,9.957,0,0,1,299.86,140.13Z" fill="#fff"/>
    </g>
  </g>
</svg>
